<svg xmlns="http://www.w3.org/2000/svg" xmlns:xlink="http://www.w3.org/1999/xlink" width="18" height="11" viewBox="0 0 18 11">
    <defs>
        <path id="a" d="M0 .9h18V11H0z"/>
    </defs>
    <g fill="none" fill-rule="evenodd">
        <g transform="translate(0 -.9)">
            <mask id="b" fill="#fff">
                <use xlink:href="#a"/>
            </mask>
            <path fill="#92278F" d="M18 3.303v-.97c0-.789-.645-1.434-1.433-1.434H1.434C.644.9 0 1.544 0 2.332v.992c0 .175.138.31.312.333a2.314 2.314 0 0 1 0 4.585C.138 8.266 0 8.4 0 8.574v.993C0 10.355.645 11 1.434 11h15.133C17.355 11 18 10.355 18 9.567v-.97a.34.34 0 0 0-.258-.324 2.419 2.419 0 0 1-1.755-2.324c0-1.105.742-2.033 1.755-2.323A.342.342 0 0 0 18 3.303" mask="url(#b)"/>
        </g>
        <path fill="#FFF" d="M3.879 2.534a.338.338 0 0 1-.338-.338v-.677a.338.338 0 1 1 .677 0v.677a.338.338 0 0 1-.34.338m0 2.03a.338.338 0 0 1-.337-.338V3.55a.338.338 0 1 1 .677 0v.676a.338.338 0 0 1-.34.338m0 2.032a.338.338 0 0 1-.337-.34V5.58a.338.338 0 1 1 .677 0v.677a.34.34 0 0 1-.34.339m0 2.03a.338.338 0 0 1-.337-.338V7.61a.338.338 0 0 1 .677 0v.678a.34.34 0 0 1-.34.338M14.121 2.534a.338.338 0 0 1-.339-.338v-.677a.34.34 0 0 1 .677 0v.677a.338.338 0 0 1-.338.338m0 2.03a.338.338 0 0 1-.339-.338V3.55a.339.339 0 1 1 .677 0v.676a.338.338 0 0 1-.338.338m0 2.032a.34.34 0 0 1-.339-.34V5.58a.338.338 0 0 1 .677 0v.677a.338.338 0 0 1-.338.339m0 2.03a.34.34 0 0 1-.339-.338V7.61a.34.34 0 0 1 .677 0v.678a.338.338 0 0 1-.338.338M10.079 2.737H7.921a.695.695 0 0 1-.693-.692v-.113c0-.381.312-.691.693-.691h2.158c.381 0 .692.31.692.69v.114c0 .38-.311.692-.692.692M10.079 5.73H7.921a.695.695 0 0 1-.693-.692v-.113c0-.381.312-.692.693-.692h2.158c.381 0 .692.31.692.692v.113c0 .38-.311.692-.692.692M10.079 8.723H7.921a.695.695 0 0 1-.693-.692v-.113c0-.38.312-.692.693-.692h2.158c.381 0 .692.311.692.692v.113c0 .38-.311.692-.692.692"/>
    </g>
</svg>
