<svg xmlns="http://www.w3.org/2000/svg" xmlns:xlink="http://www.w3.org/1999/xlink" width="26" height="25" viewBox="0 0 26 25">
    <defs>
        <path id="a" d="M.668.628H17.71V19H.668z"/>
    </defs>
    <g fill="none" fill-rule="evenodd">
        <g transform="translate(2 5.446)">
            <mask id="b" fill="#fff">
                <use xlink:href="#a"/>
            </mask>
            <path fill="#F53069" d="M17.526 14.435l-1.844-3.528.42-.773a.78.78 0 0 0-.312-1.054l-.17-.093a.775.775 0 0 0-.884.108L13.55 6.826a.325.325 0 0 1 .002-.299l1.976-3.639a1.524 1.524 0 0 0-.613-2.066 1.596 1.596 0 0 0-2.129.576l-2.189 3.54a.31.31 0 0 1-.236.15l-3.092.34.037-.068a.78.78 0 0 0-.312-1.055l-.17-.093a.78.78 0 0 0-1.055.313l-.616 1.136-3.136.343a1.653 1.653 0 0 0-1.27.854.65.65 0 0 0 .431.945l6.603 1.458c.206.046.31.277.21.461l-2.146 3.954a.316.316 0 0 1-.287.165l-2.956-.073a.722.722 0 0 0-.66.391.462.462 0 0 0 .19.618l7.666 4.162a.506.506 0 0 0 .686-.204.811.811 0 0 0-.052-.857l-1.609-2.266a.32.32 0 0 1-.021-.335l2.147-3.953a.316.316 0 0 1 .499-.077l5.033 4.871a.656.656 0 0 0 1.032-.159 1.622 1.622 0 0 0 .013-1.524" mask="url(#b)"/>
        </g>
        <path fill="#F53069" d="M11.829 1.345a.65.65 0 0 1-.054-1.298C12.13.017 12.49 0 12.85 0h.002a.65.65 0 0 1 .002 1.3 12.457 12.457 0 0 0-1.026.045m5.054.61a.62.62 0 0 1-.207-.034 12.69 12.69 0 0 0-.934-.273.65.65 0 0 1 .315-1.262c.349.087.694.188 1.033.303a.65.65 0 0 1-.207 1.266m-9.006.4a.651.651 0 0 1-.263-1.245c.328-.144.662-.276 1.003-.394a.65.65 0 1 1 .426 1.229 11.06 11.06 0 0 0-.903.355.661.661 0 0 1-.263.056m12.6 1.533a.651.651 0 0 1-.397-.136 11.684 11.684 0 0 0-.793-.562.65.65 0 0 1 .709-1.09c.302.196.595.404.879.623a.65.65 0 0 1-.398 1.165m-16.01.71a.65.65 0 0 1-.442-1.127c.265-.245.538-.478.82-.7a.65.65 0 0 1 .803 1.022c-.255.2-.501.41-.74.63a.647.647 0 0 1-.44.175m18.786 2.28a.648.648 0 0 1-.544-.291 12.052 12.052 0 0 0-.567-.787.65.65 0 0 1 1.022-.803c.223.283.433.575.63.873a.653.653 0 0 1-.541 1.009m-21.29.945a.652.652 0 0 1-.572-.959c.173-.317.357-.626.552-.926a.651.651 0 0 1 .9-.191c.3.197.385.599.19.9-.176.27-.342.549-.496.835a.652.652 0 0 1-.573.34m22.943 2.788a.65.65 0 0 1-.63-.488 12.49 12.49 0 0 0-.28-.93.65.65 0 1 1 1.228-.426c.118.338.22.68.31 1.03a.649.649 0 0 1-.628.814M.65 11.689a.65.65 0 0 1-.642-.756c.058-.356.132-.707.216-1.053a.65.65 0 1 1 1.262.311c-.077.312-.142.63-.195.953a.652.652 0 0 1-.641.545m24.606 3.04a.65.65 0 0 1-.649-.703c.026-.32.038-.644.038-.971 0-.36.29-.676.65-.676.36 0 .65.266.65.625v.05c0 .363-.013.723-.043 1.077a.65.65 0 0 1-.646.598m-1 3.957a.647.647 0 0 1-.595-.911c.129-.296.246-.597.352-.906a.65.65 0 0 1 1.23.422c-.117.342-.248.678-.393 1.005a.648.648 0 0 1-.594.39m-2.235 3.417a.65.65 0 0 1-.477-1.091c.22-.24.429-.486.628-.741a.65.65 0 0 1 1.025.799c-.221.284-.453.558-.698.823a.649.649 0 0 1-.478.21"/>
    </g>
</svg>
