<svg xmlns="http://www.w3.org/2000/svg" xmlns:xlink="http://www.w3.org/1999/xlink" width="18" height="18" viewBox="0 0 18 18">
    <defs>
        <path id="a" d="M4 7h18v17.327H4z"/>
    </defs>
    <g fill="none" fill-rule="evenodd" transform="translate(-4 -7)">
        <mask id="b" fill="#fff">
            <use xlink:href="#a"/>
        </mask>
        <path fill="#F40046" d="M21.324 17.114l-3.116-2.096v-.83a.737.737 0 0 0-.735-.734h-.182a.731.731 0 0 0-.684.488l-2.005-1.35a.298.298 0 0 1-.132-.248V8.438c0-.794-.644-1.437-1.438-1.437-.806 0-1.469.632-1.507 1.436l-.222 3.919a.298.298 0 0 1-.127.233L8.764 14.26v-.073a.736.736 0 0 0-.733-.734h-.183a.736.736 0 0 0-.734.734v1.219L4.67 17.104c-.42.29-.67.769-.67 1.28a.613.613 0 0 0 .783.589l6.132-1.762a.299.299 0 0 1 .382.287v4.244a.302.302 0 0 1-.163.267l-2.486 1.269a.682.682 0 0 0-.371.622.436.436 0 0 0 .437.427h8.229a.478.478 0 0 0 .478-.478.765.765 0 0 0-.429-.687l-2.355-1.154a.301.301 0 0 1-.167-.27v-4.243a.3.3 0 0 1 .379-.29l6.366 1.774a.62.62 0 0 0 .785-.595c0-.51-.253-.986-.676-1.27" mask="url(#b)"/>
    </g>
</svg>
