<svg xmlns="http://www.w3.org/2000/svg" xmlns:xlink="http://www.w3.org/1999/xlink" width="17" height="18" viewBox="0 0 17 18">
    <defs>
        <path id="a" d="M9 7h16.935v18H9z"/>
    </defs>
    <g fill="none" fill-rule="evenodd" transform="translate(-9 -7)">
        <mask id="b" fill="#fff">
            <use xlink:href="#a"/>
        </mask>
        <path fill="#27AAE1" d="M24.925 10.028a.688.688 0 0 1-.686.685h-2.188a.688.688 0 0 1-.686-.685v-.202c0-.377.309-.686.686-.686h2.188c.377 0 .686.309.686.686v.202zm0 3.144a.688.688 0 0 1-.686.685h-2.188a.688.688 0 0 1-.686-.685v-.203c0-.376.309-.684.686-.684h2.188c.377 0 .686.308.686.684v.203zm0 3.144a.688.688 0 0 1-.686.685h-2.188a.688.688 0 0 1-.686-.685v-.202c0-.377.309-.685.686-.685h2.188c.377 0 .686.308.686.685v.202zm-4.641-6.288a.687.687 0 0 1-.685.685H17.41a.687.687 0 0 1-.685-.685v-.202c0-.377.308-.686.685-.686h2.189c.377 0 .685.309.685.686v.202zm0 3.144a.687.687 0 0 1-.685.685H17.41a.687.687 0 0 1-.685-.685v-.203c0-.376.308-.684.685-.684h2.189c.377 0 .685.308.685.684v.203zm0 3.144a.687.687 0 0 1-.685.685H17.41a.687.687 0 0 1-.685-.685v-.202c0-.377.308-.685.685-.685h2.189c.377 0 .685.308.685.685v.202zm-5.422-1.308a.58.58 0 0 1-.577.577h-3.059a.578.578 0 0 1-.576-.577v-.42c0-.316.259-.576.576-.576h3.059a.58.58 0 0 1 .577.577v.419zm0 3.144a.58.58 0 0 1-.577.577h-3.059a.578.578 0 0 1-.576-.577v-.42c0-.316.259-.575.576-.575h3.059c.317 0 .577.259.577.576v.419zm0 3.145c0 .317-.26.576-.577.576h-3.059a.577.577 0 0 1-.576-.576v-.42c0-.317.259-.577.576-.577h3.059a.58.58 0 0 1 .577.578v.419zM24.516 7h-7.405c-.785 0-1.419.634-1.419 1.419v3.496H9.664A.664.664 0 0 0 9 12.58v11.842a.58.58 0 0 0 .579.579h8.567a.449.449 0 0 0 .448-.45v-4.515c0-.407.33-.737.737-.737h2.964c.407 0 .737.33.737.737v4.516a.45.45 0 0 0 .448.449h2.007a.449.449 0 0 0 .448-.45V8.42c0-.785-.636-1.42-1.419-1.42z" mask="url(#b)"/>
    </g>
</svg>
