<svg xmlns="http://www.w3.org/2000/svg" width="18" height="18" viewBox="0 0 18 18">
    <g fill="#79CA00" fill-rule="evenodd">
        <path d="M9.939 6.065a.804.804 0 1 0 1.32.921.804.804 0 0 0-1.32-.92"/>
        <path d="M12.185 7.875l-2.584 3.697a.412.412 0 0 1-.575.102L6.304 9.772a.413.413 0 0 1-.101-.575l2.6-3.722a.536.536 0 0 1 .255-.195l2.473-.395a.214.214 0 0 1 .286.201l.469 2.467a.556.556 0 0 1-.101.322zM6.511 1.747c0-.184.155-.339.339-.339h4.301c.183 0 .338.155.338.339v1.544H6.511V1.747zm8.67 1.544h-2.284V1.747C12.897.784 12.114 0 11.151 0H6.85c-.964 0-1.747.784-1.747 1.747v1.544H2.819A2.828 2.828 0 0 0 0 6.109v8.183a2.827 2.827 0 0 0 2.819 2.818h12.362A2.826 2.826 0 0 0 18 14.292V6.109a2.827 2.827 0 0 0-2.819-2.818z"/>
    </g>
</svg>
