<svg xmlns="http://www.w3.org/2000/svg" xmlns:xlink="http://www.w3.org/1999/xlink" width="14" height="18" viewBox="0 0 14 18">
    <defs>
        <path id="a" d="M.21.653h5.5V2H.21z"/>
        <path id="c" d="M0 0H13.92v18H0z"/>
    </defs>
    <g fill="none" fill-rule="evenodd">
        <g transform="translate(4 16)">
            <mask id="b" fill="#fff">
                <use xlink:href="#a"/>
            </mask>
            <path fill="#FB9400" d="M5.035.653H.883A.673.673 0 0 0 .883 2h4.152a.674.674 0 0 0 0-1.347" mask="url(#b)"/>
        </g>
        <g>
            <mask id="d" fill="#fff">
                <use xlink:href="#c"/>
            </mask>
            <path fill="#FB9400" d="M12.44 7.68c0 .803-.65 1.453-1.452 1.453H2.932A1.45 1.45 0 0 1 1.48 7.68V5.529a1.45 1.45 0 0 1 1.452-1.452h8.056c.802 0 1.452.649 1.452 1.452V7.68zm-3.658 4.588c0-.513.419-.93.929-.93h1.197c.51 0 .93.418.93.93 0 .511-.42.93-.93.93H9.71a.933.933 0 0 1-.93-.93zm-4.574.93H3.01a.932.932 0 0 1-.93-.93c0-.513.419-.93.93-.93h1.197c.51 0 .929.418.929.93 0 .511-.418.93-.93.93zm9.71.064v-10a1.959 1.959 0 0 0-1.958-1.958h-1.558v-.208A1.1 1.1 0 0 0 9.306 0H4.614a1.1 1.1 0 0 0-1.097 1.097v.208H1.96A1.958 1.958 0 0 0 0 3.263v10c0 1.03.799 1.867 1.81 1.944L.556 16.93A.672.672 0 0 0 1.099 18a.672.672 0 0 0 .545-.276l1.823-2.502h6.986l1.822 2.502a.675.675 0 0 0 1.089-.794l-1.255-1.723a1.953 1.953 0 0 0 1.81-1.945z" mask="url(#d)"/>
        </g>
    </g>
</svg>
